<svg xmlns="http://www.w3.org/2000/svg" width="198" height="194" viewBox="0 0 198 194">
  <g id="logo" transform="translate(-1104 -693)">
    <g id="타원_1" data-name="타원 1" transform="translate(1104 693)" fill="none" stroke="#f7ad1a" stroke-width="11">
      <ellipse cx="99" cy="97" rx="99" ry="97" stroke="none"/>
      <ellipse cx="99" cy="97" rx="93.5" ry="91.5" fill="none"/>
    </g>
    <line id="선_3" data-name="선 3" x2="164" transform="translate(1120.5 828.5)" fill="none" stroke="#f7ad1a" stroke-width="12"/>
    <path id="패스_5" data-name="패스 5" d="M72.888,83.55a64.748,64.748,0,0,0-7.312-32.987c-5.391-10.1-10.456-16.279-17.713-24.213C29.113,5.85-3.812.188-3.812.188" transform="translate(1127.5 746.5)" fill="none" stroke="#f7ad1a" stroke-width="11"/>
    <path id="패스_6" data-name="패스 6" d="M-3.714,83.55A64.748,64.748,0,0,1,3.6,50.563c5.391-10.1,10.456-16.279,17.713-24.213C40.061,5.85,72.986.188,72.986.188" transform="translate(1207.5 746.5)" fill="none" stroke="#f7ad1a" stroke-width="11"/>
  </g>
</svg>
